<?xml version="1.0" encoding="UTF-8"?>
<!-- Generator: visioncortex VTracer 0.6.3 -->
<svg version="1.1" xmlns="http://www.w3.org/2000/svg" width="1280" height="337">
<path d="M0 0 C1.84 -0.01 1.84 -0.01 3.72 -0.02 C5.07 -0.02 6.43 -0.02 7.78 -0.01 C9.21 -0.02 10.64 -0.02 12.07 -0.03 C15.95 -0.04 19.83 -0.04 23.71 -0.04 C26.95 -0.04 30.19 -0.04 33.44 -0.05 C41.08 -0.06 48.73 -0.06 56.37 -0.05 C64.26 -0.05 72.14 -0.06 80.02 -0.08 C86.8 -0.1 93.57 -0.11 100.34 -0.1 C104.39 -0.1 108.43 -0.1 112.48 -0.12 C116.28 -0.13 120.08 -0.13 123.88 -0.12 C125.28 -0.11 126.67 -0.12 128.06 -0.12 C129.97 -0.13 131.87 -0.12 133.78 -0.11 C135.38 -0.11 135.38 -0.11 137.01 -0.11 C140.9 0.39 143.74 1.79 146.18 4.9 C147.28 8.56 147.26 12.22 147.3 16.01 C147.31 16.85 147.32 17.7 147.33 18.58 C147.35 20.37 147.36 22.16 147.37 23.95 C147.39 26.69 147.45 29.42 147.51 32.15 C147.53 33.9 147.54 35.64 147.55 37.38 C147.57 38.2 147.6 39.01 147.62 39.85 C147.61 40.62 147.61 41.39 147.6 42.18 C147.61 43.18 147.61 43.18 147.62 44.21 C146.38 47.67 144.06 49.6 140.89 51.26 C137.5 51.97 134.2 51.95 130.75 51.92 C129.25 51.94 129.25 51.94 127.71 51.95 C124.39 51.98 121.08 51.97 117.77 51.97 C115.47 51.98 113.17 52 110.87 52.01 C104.82 52.05 98.78 52.06 92.73 52.07 C86.56 52.08 80.38 52.11 74.21 52.15 C62.1 52.21 50 52.24 37.89 52.26 C37.89 64.8 37.89 77.34 37.89 90.26 C38.88 90.76 38.88 90.76 39.89 91.26 C40.22 90.6 40.55 89.94 40.89 89.26 C40.89 89.92 40.89 90.58 40.89 91.26 C41.68 91.26 42.47 91.26 43.28 91.25 C50.72 91.23 58.17 91.22 65.61 91.21 C69.44 91.2 73.27 91.2 77.09 91.19 C80.79 91.17 84.48 91.17 88.18 91.17 C89.59 91.16 91 91.16 92.4 91.15 C94.38 91.15 96.36 91.15 98.33 91.15 C99.46 91.14 100.58 91.14 101.74 91.14 C104.89 91.26 107.81 91.54 110.89 92.26 C112.03 94.55 112.03 95.86 112.05 98.4 C112.06 99.26 112.07 100.11 112.08 100.99 C112.08 101.92 112.09 102.84 112.09 103.79 C112.1 104.74 112.1 105.69 112.11 106.66 C112.12 108.67 112.13 110.67 112.13 112.67 C112.14 115.75 112.17 118.82 112.2 121.9 C112.21 123.84 112.21 125.79 112.22 127.73 C112.23 128.65 112.24 129.58 112.26 130.53 C112.25 131.38 112.25 132.24 112.25 133.12 C112.25 134.25 112.25 134.25 112.26 135.4 C112.14 136.01 112.01 136.63 111.89 137.26 C108.27 139.68 106.62 139.5 102.31 139.49 C101.64 139.49 100.98 139.49 100.3 139.49 C98.1 139.49 95.91 139.47 93.72 139.46 C92.2 139.45 90.68 139.45 89.16 139.45 C85.16 139.44 81.16 139.42 77.16 139.4 C73.08 139.38 69 139.37 64.92 139.36 C56.91 139.34 48.9 139.3 40.89 139.26 C40.56 139.92 40.23 140.58 39.89 141.26 C38.9 141.26 37.91 141.26 36.89 141.26 C37.22 153.14 37.55 165.02 37.89 177.26 C38.88 177.26 39.87 177.26 40.89 177.26 C40.89 177.92 40.89 178.58 40.89 179.26 C42.11 179.26 43.32 179.25 44.58 179.25 C56.04 179.21 67.5 179.18 78.96 179.16 C84.86 179.15 90.75 179.13 96.64 179.11 C102.33 179.09 108.02 179.08 113.7 179.07 C115.87 179.07 118.04 179.06 120.21 179.05 C123.25 179.03 126.29 179.03 129.33 179.03 C130.22 179.03 131.12 179.02 132.05 179.01 C137.3 179.03 141.56 179.2 145.67 182.84 C147.49 186.46 147.36 190.04 147.36 194.01 C147.37 194.85 147.37 195.7 147.38 196.58 C147.39 198.37 147.4 200.16 147.39 201.95 C147.39 204.69 147.43 207.42 147.48 210.15 C147.48 211.9 147.48 213.64 147.48 215.38 C147.5 216.2 147.52 217.01 147.53 217.85 C147.52 218.62 147.51 219.39 147.5 220.18 C147.51 220.85 147.51 221.52 147.51 222.21 C146.76 224.69 145.77 226.49 143.84 228.25 C139.04 230.73 133.08 229.92 127.8 229.86 C126.35 229.86 124.89 229.87 123.44 229.87 C119.5 229.88 115.57 229.86 111.63 229.83 C107.51 229.81 103.38 229.81 99.26 229.81 C92.34 229.81 85.42 229.78 78.5 229.75 C70.5 229.71 62.5 229.69 54.49 229.69 C45.97 229.68 37.45 229.66 28.93 229.64 C26.48 229.63 24.02 229.63 21.57 229.62 C17.71 229.62 13.85 229.6 10 229.58 C8.58 229.57 7.17 229.57 5.75 229.57 C3.82 229.57 1.89 229.55 -0.04 229.53 C-1.67 229.53 -1.67 229.53 -3.32 229.52 C-6.15 229.26 -7.76 228.84 -10.11 227.26 C-12.69 223.4 -12.39 220.22 -12.36 215.74 C-12.36 214.86 -12.36 213.98 -12.36 213.07 C-12.37 210.11 -12.36 207.15 -12.35 204.19 C-12.35 202.07 -12.36 199.95 -12.36 197.83 C-12.36 192.07 -12.36 186.3 -12.35 180.54 C-12.34 174.51 -12.34 168.48 -12.34 162.46 C-12.34 152.33 -12.33 142.2 -12.32 132.08 C-12.3 120.37 -12.3 108.66 -12.3 96.95 C-12.3 85.7 -12.29 74.44 -12.28 63.18 C-12.28 58.39 -12.28 53.6 -12.28 48.81 C-12.28 43.16 -12.27 37.51 -12.26 31.87 C-12.26 29.79 -12.26 27.72 -12.26 25.65 C-12.26 22.82 -12.25 19.99 -12.24 17.16 C-12.25 16.34 -12.25 15.52 -12.25 14.67 C-12.21 5.78 -12.21 5.78 -11.11 2.26 C-7.55 0.04 -4.12 0.01 0 0 Z " fill="#F9F9F9" transform="translate(67.1103515625,49.73930358886719)"/>
<path d="M0 0 C0.95 0 1.89 0 2.87 0 C8.21 0.07 12.7 0.71 17.81 2.38 C19.68 2.71 21.56 3.03 23.44 3.31 C27.55 4.02 30.34 4.99 33.81 7.38 C35.8 8.09 37.79 8.76 39.81 9.38 C39.81 10.03 39.81 10.69 39.81 11.38 C40.8 11.38 41.79 11.38 42.81 11.38 C42.81 12.03 42.81 12.69 42.81 13.38 C43.47 13.38 44.13 13.38 44.81 13.38 C44.81 14.03 44.81 14.69 44.81 15.38 C45.8 15.05 46.79 14.72 47.81 14.38 C48.04 14.99 48.27 15.61 48.5 16.25 C49.66 18.6 49.66 18.6 52.31 19.38 C54.81 20.38 54.81 20.38 56.12 22.5 C56.35 23.12 56.58 23.74 56.81 24.38 C58.79 23.72 60.77 23.06 62.81 22.38 C61.82 21.38 61.82 21.38 60.81 20.38 C61.8 20.05 62.79 19.72 63.81 19.38 C65.56 17.65 65.56 17.65 67.25 15.56 C67.87 14.84 68.49 14.13 69.13 13.39 C70.35 11.93 71.51 10.41 72.62 8.88 C76.34 6.33 80.47 6.64 84.81 7.38 C87.39 9.26 88.41 10.57 89.81 13.38 C89.91 15.44 89.95 17.51 89.95 19.58 C89.96 20.22 89.96 20.87 89.96 21.53 C89.97 23.7 89.97 25.86 89.97 28.03 C89.98 29.58 89.98 31.12 89.99 32.67 C90 36.89 90.01 41.1 90.01 45.32 C90.02 47.95 90.02 50.58 90.02 53.21 C90.04 61.45 90.05 69.68 90.05 77.91 C90.06 87.42 90.07 96.93 90.1 106.44 C90.12 113.79 90.13 121.13 90.14 128.48 C90.14 132.87 90.14 137.26 90.16 141.65 C90.18 145.78 90.18 149.91 90.17 154.03 C90.17 155.55 90.17 157.07 90.18 158.58 C90.2 160.65 90.19 162.72 90.18 164.79 C90.18 165.95 90.18 167.1 90.18 168.3 C89.77 171.73 88.87 173.62 86.81 176.38 C83.83 177.87 81.1 177.49 77.81 177.38 C77.15 177.04 76.49 176.72 75.81 176.38 C75.81 175.72 75.81 175.06 75.81 174.38 C74.86 174.17 73.91 173.96 72.94 173.75 C69.81 172.38 69.81 172.38 68.56 169.31 C68.31 168.34 68.07 167.37 67.81 166.38 C67.15 166.04 66.49 165.72 65.81 165.38 C65.38 164.41 64.95 163.44 64.5 162.44 C63.09 159.2 63.09 159.2 60.12 158 C59.36 157.79 58.6 157.59 57.81 157.38 C57.38 157.81 56.94 158.24 56.49 158.69 C51.57 163.29 51.57 163.29 47.38 163.75 C46.53 163.63 45.68 163.5 44.81 163.38 C44.67 164.01 44.52 164.65 44.38 165.31 C43.81 167.38 43.81 167.38 42.81 168.38 C40.14 168.52 37.49 168.42 34.81 168.38 C34.71 168.99 34.61 169.61 34.5 170.25 C33.81 172.38 33.81 172.38 30.81 174.38 C27.63 174 27.63 174 24.81 173.38 C24.48 174.37 24.15 175.36 23.81 176.38 C22.82 176.38 21.83 176.38 20.81 176.38 C20.81 177.03 20.81 177.69 20.81 178.38 C15.08 178.45 9.35 178.5 3.62 178.54 C1.68 178.55 -0.27 178.58 -2.22 178.6 C-5.02 178.64 -7.83 178.65 -10.63 178.67 C-11.5 178.68 -12.36 178.7 -13.26 178.71 C-18.35 178.72 -21.73 178.12 -26.19 175.38 C-26.19 174.72 -26.19 174.06 -26.19 173.38 C-29.49 173.38 -32.79 173.38 -36.19 173.38 C-36.19 172.72 -36.19 172.06 -36.19 171.38 C-37.55 171.19 -37.55 171.19 -38.94 171 C-41.84 170.44 -43.77 170.02 -46.19 168.38 C-46.46 167.76 -46.72 167.14 -47 166.5 C-48.55 163.72 -50.68 162.78 -53.43 161.32 C-55.54 160.19 -57.39 158.95 -59.19 157.38 C-59.19 156.72 -59.19 156.06 -59.19 155.38 C-59.81 155.29 -60.43 155.21 -61.06 155.12 C-63.19 154.38 -63.19 154.38 -64.19 152.56 C-64.52 151.84 -64.85 151.12 -65.19 150.38 C-66.5 149.02 -67.83 147.69 -69.19 146.38 C-72.37 142.82 -73.72 139.87 -75.19 135.38 C-75.68 134.92 -76.17 134.47 -76.68 134.01 C-79.13 131.35 -79.07 128.23 -79.56 124.75 C-80.27 122.04 -81.21 121.27 -83.19 119.38 C-85 113.95 -84.61 107.91 -84.81 102.25 C-84.86 101.04 -84.92 99.84 -84.97 98.6 C-85.01 97.45 -85.06 96.3 -85.1 95.12 C-85.14 94.06 -85.18 93.01 -85.23 91.93 C-85.19 89.38 -85.19 89.38 -84.19 87.38 C-84.85 87.05 -85.51 86.72 -86.19 86.38 C-85.53 86.38 -84.87 86.38 -84.19 86.38 C-84.2 85.23 -84.21 84.08 -84.22 82.9 C-84.23 81.37 -84.24 79.84 -84.25 78.31 C-84.26 77.56 -84.27 76.81 -84.28 76.03 C-84.3 71.4 -84.2 66.92 -83.19 62.38 C-82.2 61.72 -81.21 61.06 -80.19 60.38 C-79.76 58.31 -79.76 58.31 -79.75 56 C-79.41 51.59 -78.36 50.45 -75.19 47.38 C-74.25 44.42 -73.68 41.43 -73.19 38.38 C-71.87 38.7 -70.55 39.03 -69.19 39.38 C-69.26 38.63 -69.33 37.89 -69.4 37.12 C-69.14 33.69 -68.24 32.79 -65.83 30.39 C-65.12 29.68 -64.42 28.98 -63.7 28.25 C-62.95 27.53 -62.21 26.81 -61.44 26.06 C-60.71 25.32 -59.98 24.58 -59.23 23.82 C-53.71 18.38 -53.71 18.38 -49.19 18.38 C-49.68 16.89 -49.68 16.89 -50.19 15.38 C-48.49 14.97 -48.49 14.97 -46.75 14.56 C-45.57 14.17 -44.4 13.78 -43.19 13.38 C-42.86 12.39 -42.53 11.39 -42.19 10.38 C-40.19 9.75 -40.19 9.75 -37.75 9.38 C-35.34 9.06 -35.34 9.06 -33.19 8.38 C-32.53 7.39 -31.87 6.39 -31.19 5.38 C-29.06 4.93 -29.06 4.93 -26.62 4.81 C-24.25 4.73 -24.25 4.73 -22.19 4.38 C-21.86 3.72 -21.53 3.06 -21.19 2.38 C-21.19 3.03 -21.19 3.69 -21.19 4.38 C-20.6 4.09 -20 3.81 -19.39 3.51 C-12.74 0.56 -7.23 -0.19 0 0 Z M-5.19 45.38 C-5.52 46.37 -5.85 47.35 -6.19 48.38 C-6.99 48.31 -7.8 48.25 -8.62 48.19 C-14.13 48.48 -19.05 49.33 -23.14 53.25 C-24.33 54.65 -25.48 56.07 -26.61 57.52 C-28.19 59.38 -28.19 59.38 -31.12 61.06 C-31.81 61.5 -32.49 61.93 -33.19 62.38 C-33.44 64.83 -33.44 64.83 -33.19 67.38 C-34.19 69.69 -34.19 69.69 -35.19 71.38 C-35.85 71.38 -36.51 71.38 -37.19 71.38 C-37.19 83.59 -37.19 95.8 -37.19 108.38 C-36.53 108.38 -35.87 108.38 -35.19 108.38 C-35.06 108.93 -34.94 109.49 -34.81 110.06 C-34.12 112.64 -33.36 114.97 -32.19 117.38 C-31.2 117.7 -30.21 118.03 -29.19 118.38 C-28.86 119.37 -28.53 120.36 -28.19 121.38 C-23 126.73 -16.2 131.87 -8.6 132.63 C-7.7 132.64 -6.81 132.64 -5.88 132.64 C-4.88 132.64 -3.89 132.65 -2.87 132.65 C-1.84 132.64 -0.81 132.63 0.25 132.62 C1.27 132.63 2.3 132.64 3.35 132.65 C8.56 132.63 12.95 132.48 17.81 130.38 C17.81 129.72 17.81 129.06 17.81 128.38 C18.66 128.21 19.5 128.05 20.38 127.88 C25.18 125.78 27.56 122.37 30.81 118.38 C32.66 116.47 34.52 114.64 36.5 112.88 C39.42 109.54 39.45 103.97 40.21 99.71 C40.81 97.38 40.81 97.38 42.81 94.38 C42.94 88.88 41.39 83.59 39.81 78.38 C39.31 76.05 38.83 73.72 38.38 71.39 C37.84 69.09 37.84 69.09 35.81 66.38 C35.15 66.38 34.49 66.38 33.81 66.38 C33.73 65.43 33.65 64.48 33.56 63.5 C33.31 62.47 33.07 61.44 32.81 60.38 C30.86 59.15 30.86 59.15 28.81 58.38 C28.32 56.89 28.32 56.89 27.81 55.38 C27.15 55.38 26.49 55.38 25.81 55.38 C25.81 54.72 25.81 54.06 25.81 53.38 C25.15 53.38 24.49 53.38 23.81 53.38 C23.32 51.89 23.32 51.89 22.81 50.38 C21.72 50.42 20.63 50.46 19.5 50.5 C15.81 50.38 15.81 50.38 12.81 48.38 C11.82 48.38 10.83 48.38 9.81 48.38 C9.81 47.72 9.81 47.06 9.81 46.38 C4.76 45.34 -0.06 45.27 -5.19 45.38 Z M-82.19 62.38 C-81.86 63.03 -81.53 63.69 -81.19 64.38 C-80.86 63.72 -80.53 63.06 -80.19 62.38 C-80.85 62.38 -81.51 62.38 -82.19 62.38 Z " fill="#F9F9F9" transform="translate(308.1875,101.625)"/>
<path d="M0 0 C0.81 0.16 1.63 0.31 2.47 0.48 C7.2 1.52 10.08 2.94 13.75 6.25 C16.08 7.27 18.41 8.26 20.75 9.25 C24.15 11.34 26.95 13.45 29.75 16.25 C30.49 16.64 31.24 17.03 32 17.44 C35.33 19.64 37.55 22.27 40.1 25.31 C41.58 27.05 43.12 28.65 44.75 30.25 C46.92 32.66 47.71 33.72 47.94 37 C47.88 37.74 47.81 38.49 47.75 39.25 C47.09 39.25 46.43 39.25 45.75 39.25 C45.41 40.58 45.41 40.58 45.06 41.94 C43.53 45.8 41.78 47.42 38.75 50.25 C37.57 51.57 36.4 52.91 35.25 54.25 C27.14 63.56 27.14 63.56 21.75 65.25 C21.75 67.23 21.75 69.21 21.75 71.25 C20.76 71.75 20.76 71.75 19.75 72.25 C19.48 72.83 19.21 73.41 18.94 74 C16.81 78.03 14.07 80.81 9.75 82.25 C8.7 84.1 8.7 84.1 7.75 86.25 C6.25 88.5 6.25 88.5 4.75 90.25 C4.09 90.25 3.43 90.25 2.75 90.25 C2.38 91.21 2.38 91.21 2 92.19 C0.75 94.25 0.75 94.25 -1.38 95 C-1.99 95.08 -2.61 95.17 -3.25 95.25 C-3.19 96.18 -3.13 97.11 -3.06 98.06 C-3.25 101.25 -3.25 101.25 -4.44 102.75 C-5.04 103.25 -5.63 103.74 -6.25 104.25 C-7.44 105.67 -8.63 107.09 -9.8 108.52 C-21.88 123 -21.88 123 -28.25 127.25 C-26.49 129.42 -26.49 129.42 -24.37 129.48 C-23.63 129.47 -22.88 129.46 -22.12 129.45 C-21.31 129.44 -20.51 129.43 -19.68 129.43 C-18.83 129.41 -17.99 129.39 -17.12 129.38 C-16.28 129.37 -15.43 129.36 -14.55 129.35 C-12.45 129.32 -10.35 129.29 -8.25 129.25 C-7.92 128.59 -7.59 127.93 -7.25 127.25 C-5.58 126.32 -5.58 126.32 -3.5 125.38 C2.56 122.44 6.78 118.65 10.75 113.25 C11.62 110.53 11.62 110.53 11.75 108.25 C13.73 108.58 15.71 108.91 17.75 109.25 C18.08 108.59 18.41 107.93 18.75 107.25 C19.18 108.22 19.62 109.19 20.06 110.19 C21.45 113.53 21.45 113.53 24.75 114.25 C25.76 115.91 26.76 117.58 27.75 119.25 C31.19 123.09 31.19 123.09 35.75 125.25 C36.37 126.3 36.37 126.3 37 127.38 C39.37 131.26 42.48 134.12 45.75 137.25 C46.41 137.91 47.07 138.57 47.75 139.25 C47.16 140.57 46.55 141.88 45.94 143.19 C45.6 143.92 45.26 144.65 44.92 145.4 C43.75 147.25 43.75 147.25 40.75 148.25 C40.5 148.97 40.26 149.69 40 150.44 C38.24 154.4 35.3 156.81 31.75 159.25 C31.09 159.25 30.43 159.25 29.75 159.25 C29.41 160.15 29.41 160.15 29.06 161.06 C27.36 163.91 25.74 164.86 22.75 166.25 C19.94 166.44 19.94 166.44 17.75 166.25 C17.75 166.91 17.75 167.57 17.75 168.25 C13.24 172.16 8.37 171.54 2.75 171.25 C2.09 172.9 1.43 174.55 0.75 176.25 C-5.59 176.3 -11.92 176.34 -18.26 176.36 C-20.41 176.37 -22.57 176.38 -24.72 176.4 C-27.82 176.43 -30.92 176.44 -34.02 176.45 C-35.46 176.46 -35.46 176.46 -36.94 176.48 C-37.84 176.48 -38.74 176.48 -39.67 176.48 C-40.46 176.48 -41.25 176.49 -42.06 176.49 C-44.55 176.22 -46.14 175.57 -48.25 174.25 C-48.58 173.59 -48.91 172.93 -49.25 172.25 C-51.61 171.78 -51.61 171.78 -54.31 171.62 C-55.23 171.55 -56.15 171.48 -57.1 171.4 C-58.16 171.32 -58.16 171.32 -59.25 171.25 C-59.25 170.59 -59.25 169.93 -59.25 169.25 C-60.58 168.91 -60.58 168.91 -61.94 168.56 C-65.25 167.25 -65.25 167.25 -67.75 164.69 C-70.04 161.99 -70.04 161.99 -73.25 161.75 C-77.28 161.08 -78.54 159.23 -81.25 156.25 C-82.16 155.57 -83.07 154.89 -84 154.19 C-86.49 152.05 -86.54 151.28 -87.25 148.25 C-88.57 147.55 -89.9 146.88 -91.25 146.25 C-91.58 145.26 -91.91 144.27 -92.25 143.25 C-92.91 142.92 -93.57 142.59 -94.25 142.25 C-94.25 141.26 -94.25 140.27 -94.25 139.25 C-94.91 139.25 -95.57 139.25 -96.25 139.25 C-100.25 131.25 -100.25 131.25 -101.25 129.21 C-101.9 127.94 -102.58 126.67 -103.29 125.43 C-105.71 121.03 -106.62 117.47 -106.97 112.48 C-107.34 109.49 -108.35 106.94 -109.53 104.17 C-111.45 99.05 -111.44 93.96 -111.44 88.56 C-111.44 87.76 -111.44 86.96 -111.44 86.14 C-111.36 78.72 -110.79 71.88 -107.25 65.25 C-107.91 64.92 -108.57 64.59 -109.25 64.25 C-108.26 63.75 -108.26 63.75 -107.25 63.25 C-106.78 60.89 -106.78 60.89 -106.62 58.19 C-106.51 56.81 -106.51 56.81 -106.4 55.4 C-106.35 54.69 -106.3 53.98 -106.25 53.25 C-105.59 53.25 -104.93 53.25 -104.25 53.25 C-104.58 51.93 -104.91 50.61 -105.25 49.25 C-103.77 48.75 -103.77 48.75 -102.25 48.25 C-101.92 45.94 -101.59 43.63 -101.25 41.25 C-100.26 41.25 -99.27 41.25 -98.25 41.25 C-98.25 40.26 -98.25 39.27 -98.25 38.25 C-97.59 38.25 -96.93 38.25 -96.25 38.25 C-95.92 36.6 -95.59 34.95 -95.25 33.25 C-93.77 32.75 -93.77 32.75 -92.25 32.25 C-91.92 30.6 -91.59 28.95 -91.25 27.25 C-89.6 27.25 -87.95 27.25 -86.25 27.25 C-86.25 25.6 -86.25 23.95 -86.25 22.25 C-84.6 22.25 -82.95 22.25 -81.25 22.25 C-81.25 20.93 -81.25 19.61 -81.25 18.25 C-80.55 18.02 -79.85 17.8 -79.12 17.56 C-76.58 16.4 -75.22 15.45 -73.19 13.62 C-70.25 11.25 -70.25 11.25 -66.25 11.25 C-66.74 9.77 -66.74 9.77 -67.25 8.25 C-66.16 7.98 -65.06 7.71 -63.94 7.44 C-60.63 6.37 -59.3 5.9 -57.25 3.25 C-56.76 3.75 -56.76 3.75 -56.25 4.25 C-56.25 3.92 -56.25 3.59 -56.25 3.25 C-52.2 2.27 -48.41 2.17 -44.25 2.25 C-43.92 1.59 -43.59 0.93 -43.25 0.25 C-41.59 -0.13 -39.93 -0.46 -38.25 -0.75 C-28.56 -5.59 -10.3 -2.04 0 0 Z M40.75 39.25 C40.09 40.9 39.43 42.55 38.75 44.25 C39.74 43.59 40.73 42.93 41.75 42.25 C41.42 41.26 41.09 40.27 40.75 39.25 Z M-35.02 46.23 C-35.42 46.9 -35.83 47.56 -36.25 48.25 C-38.58 48.59 -40.92 48.92 -43.25 49.25 C-45.71 51.04 -45.71 51.04 -47.25 53.25 C-47.25 53.91 -47.25 54.57 -47.25 55.25 C-48.05 55.5 -48.86 55.75 -49.69 56 C-50.96 56.62 -50.96 56.62 -52.25 57.25 C-52.62 58.57 -52.96 59.91 -53.25 61.25 C-54.57 61.95 -55.9 62.62 -57.25 63.25 C-60.54 66.54 -60.74 69.74 -61.25 74.25 C-61.58 74.58 -61.91 74.91 -62.25 75.25 C-62.29 76.92 -62.29 78.58 -62.25 80.25 C-62.91 80.25 -63.57 80.25 -64.25 80.25 C-64.31 83.52 -64.34 86.79 -64.38 90.06 C-64.39 90.99 -64.41 91.92 -64.43 92.88 C-64.43 93.77 -64.44 94.66 -64.45 95.58 C-64.46 96.4 -64.47 97.23 -64.48 98.07 C-64.39 100.54 -64.39 100.54 -62.25 103.25 C-59.28 102.75 -59.28 102.75 -56.25 102.25 C-55.59 99.94 -54.93 97.63 -54.25 95.25 C-53.63 95.19 -53.01 95.13 -52.38 95.06 C-51.67 94.79 -50.97 94.53 -50.25 94.25 C-49.55 92.6 -48.88 90.93 -48.25 89.25 C-46.77 88.75 -46.77 88.75 -45.25 88.25 C-44.42 86.33 -44.42 86.33 -44.25 84.25 C-44.58 83.59 -44.91 82.93 -45.25 82.25 C-43.77 82.75 -43.77 82.75 -42.25 83.25 C-42.02 82.51 -41.8 81.76 -41.56 81 C-40 77.72 -38.06 76.5 -35.25 74.25 C-34.56 72.59 -33.89 70.93 -33.25 69.25 C-32.26 68.92 -31.27 68.59 -30.25 68.25 C-29.96 67.18 -29.67 66.11 -29.38 65 C-28.08 60.68 -26.55 59.24 -23.25 56.25 C-19.32 52.35 -19.32 52.35 -18.11 47.06 C-18.16 46.13 -18.2 45.2 -18.25 44.25 C-20.69 44.14 -23.12 44.06 -25.56 44 C-26.6 43.95 -26.6 43.95 -27.65 43.9 C-31.86 43.74 -31.86 43.74 -35.02 46.23 Z M35.75 45.25 C36.08 45.91 36.41 46.57 36.75 47.25 C37.08 46.59 37.41 45.93 37.75 45.25 C37.09 45.25 36.43 45.25 35.75 45.25 Z M-17.25 46.25 C-16.92 46.91 -16.59 47.57 -16.25 48.25 C-15.92 47.59 -15.59 46.93 -15.25 46.25 C-15.91 46.25 -16.57 46.25 -17.25 46.25 Z M-53.25 52.25 C-52.92 52.91 -52.59 53.57 -52.25 54.25 C-51.92 53.59 -51.59 52.93 -51.25 52.25 C-51.91 52.25 -52.57 52.25 -53.25 52.25 Z M15.75 69.25 C15.09 70.57 14.43 71.89 13.75 73.25 C14.74 72.92 15.73 72.59 16.75 72.25 C16.42 71.26 16.09 70.27 15.75 69.25 Z M6.75 80.25 C6.42 80.91 6.09 81.57 5.75 82.25 C6.41 82.25 7.07 82.25 7.75 82.25 C7.42 81.59 7.09 80.93 6.75 80.25 Z M-10.25 100.25 C-9.25 102.25 -9.25 102.25 -9.25 102.25 Z M-11.25 102.25 C-11.58 102.91 -11.91 103.57 -12.25 104.25 C-11.59 104.25 -10.93 104.25 -10.25 104.25 C-10.58 103.59 -10.91 102.93 -11.25 102.25 Z M-15.25 106.25 C-15.58 107.57 -15.91 108.89 -16.25 110.25 C-15.59 109.92 -14.93 109.59 -14.25 109.25 C-14.58 108.26 -14.91 107.27 -15.25 106.25 Z M-18.25 110.25 C-18.25 111.24 -18.25 112.23 -18.25 113.25 C-17.59 112.26 -16.93 111.27 -16.25 110.25 C-16.91 110.25 -17.57 110.25 -18.25 110.25 Z M25.75 157.25 C26.75 159.25 26.75 159.25 26.75 159.25 Z " fill="#F9F9F9" transform="translate(1175.25,103.75)"/>
<path d="M0 0 C1.03 0.01 2.05 0.01 3.11 0.02 C9.46 0.13 15.22 0.74 21.31 2.66 C23.96 3.42 26.38 3.65 29.12 3.81 C34.01 4.19 36.7 5.74 40.81 8.38 C42.1 8.92 43.39 9.44 44.69 9.94 C46.23 10.65 46.23 10.65 47.81 11.38 C48.14 12.36 48.47 13.36 48.81 14.38 C49.53 14.46 50.26 14.54 51 14.62 C54.43 15.54 56.15 17.05 58.81 19.38 C59.68 20.03 60.54 20.69 61.44 21.38 C63.66 23.25 65.26 24.93 66.81 27.38 C66.81 28.03 66.81 28.69 66.81 29.38 C67.43 29.62 68.05 29.87 68.69 30.12 C71.2 31.6 71.67 32.75 72.81 35.38 C73.47 36.03 74.13 36.69 74.81 37.38 C74.44 39.5 74.44 39.5 73.81 41.38 C74.8 41.38 75.79 41.38 76.81 41.38 C78.85 45.1 79.81 47.04 79.81 51.38 C80.47 51.38 81.13 51.38 81.81 51.38 C85.72 55.89 85.11 60.75 84.81 66.38 C85.47 66.38 86.13 66.38 86.81 66.38 C91.21 80.25 92.75 98.75 86.81 112.38 C86.48 112.7 86.15 113.03 85.81 113.38 C85.65 114.96 85.54 116.54 85.44 118.12 C85.06 122.22 84.59 125.17 81.81 128.38 C80.82 128.38 79.83 128.38 78.81 128.38 C79.14 130.35 79.47 132.34 79.81 134.38 C79.15 134.71 78.49 135.03 77.81 135.38 C76.84 137.16 75.87 138.94 74.9 140.72 C73.53 142.8 72.17 143.62 69.81 144.38 C69.87 145.14 69.94 145.9 70 146.69 C69.81 149.38 69.81 149.38 68.44 151 C67.9 151.45 67.37 151.91 66.81 152.38 C66.15 153.37 65.49 154.35 64.81 155.38 C63.82 155.38 62.83 155.38 61.81 155.38 C61.73 155.99 61.65 156.61 61.56 157.25 C60.81 159.38 60.81 159.38 58.81 160.5 C57.82 160.93 57.82 160.93 56.81 161.38 C56.48 162.03 56.15 162.69 55.81 163.38 C53.83 163.04 51.85 162.72 49.81 162.38 C49.52 163.34 49.24 164.31 48.94 165.31 C47.81 168.38 47.81 168.38 45.81 169.38 C43.47 169.09 41.14 168.76 38.81 168.38 C38.63 169.58 38.63 169.58 38.44 170.81 C38.23 171.66 38.02 172.5 37.81 173.38 C34.74 174.91 32.11 173.92 28.81 173.38 C28.48 174.37 28.15 175.36 27.81 176.38 C26.49 176.38 25.17 176.38 23.81 176.38 C23.81 177.03 23.81 177.69 23.81 178.38 C17.9 178.42 12 178.46 6.09 178.48 C4.08 178.49 2.07 178.51 0.06 178.53 C-2.83 178.55 -5.72 178.56 -8.61 178.57 C-9.51 178.58 -10.41 178.59 -11.33 178.6 C-12.17 178.6 -13.01 178.6 -13.88 178.6 C-14.98 178.61 -14.98 178.61 -16.11 178.62 C-18.53 178.33 -20.12 177.66 -22.19 176.38 C-22.52 175.72 -22.85 175.06 -23.19 174.38 C-25.67 174.02 -28.14 173.93 -30.64 173.82 C-33.59 173.3 -35.03 172.42 -37.19 170.38 C-37.19 169.72 -37.19 169.06 -37.19 168.38 C-38.03 168.48 -38.88 168.58 -39.75 168.69 C-44.19 168.28 -47.01 166.47 -50.19 163.38 C-50.19 162.72 -50.19 162.06 -50.19 161.38 C-50.78 161.1 -51.36 160.83 -51.97 160.55 C-57.24 157.76 -61.86 153.3 -65.19 148.38 C-65.19 147.38 -65.19 146.4 -65.19 145.38 C-65.79 145.19 -66.38 145 -67 144.81 C-70.21 142.71 -70.78 139.87 -72.19 136.38 C-73.17 135.36 -74.16 134.35 -75.19 133.38 C-75.52 132.04 -75.85 130.71 -76.19 129.38 C-76.66 128.97 -77.13 128.57 -77.62 128.15 C-79.84 125.64 -80.1 123.26 -80.75 120 C-81.58 115.9 -82.62 112.25 -84.19 108.38 C-85.05 104.8 -85.32 101.48 -85.32 97.8 C-85.32 96.74 -85.32 95.68 -85.32 94.59 C-85.32 93.49 -85.32 92.38 -85.31 91.25 C-85.32 90.17 -85.32 89.09 -85.32 87.98 C-85.32 81.06 -84.94 74.26 -84.19 67.38 C-83.53 67.38 -82.87 67.38 -82.19 67.38 C-81.53 65.72 -80.87 64.07 -80.19 62.38 C-80.85 62.05 -81.51 61.72 -82.19 61.38 C-81.53 61.38 -80.87 61.38 -80.19 61.38 C-80.15 60.75 -80.11 60.12 -80.07 59.48 C-80.01 58.66 -79.94 57.84 -79.88 57 C-79.82 56.19 -79.76 55.38 -79.7 54.54 C-79.19 52.38 -79.19 52.38 -76.19 50.38 C-75.29 48.26 -75.29 48.26 -74.69 45.88 C-73.52 41.6 -73.52 41.6 -70.19 39.38 C-69.46 36.81 -69.46 36.81 -69.19 34.38 C-68.2 34.38 -67.21 34.38 -66.19 34.38 C-65.98 33.49 -65.77 32.6 -65.56 31.69 C-63.8 27.44 -61.8 26.14 -58.19 23.38 C-57.86 22.72 -57.53 22.06 -57.19 21.38 C-56.53 21.38 -55.87 21.38 -55.19 21.38 C-55.19 20.72 -55.19 20.06 -55.19 19.38 C-53.54 19.05 -51.89 18.72 -50.19 18.38 C-50.19 17.39 -50.19 16.39 -50.19 15.38 C-49.05 15.25 -47.92 15.13 -46.75 15 C-45.57 14.79 -44.4 14.59 -43.19 14.38 C-42.86 13.72 -42.53 13.06 -42.19 12.38 C-41.86 11.72 -41.53 11.06 -41.19 10.38 C-38.54 9.78 -35.9 9.63 -33.19 9.38 C-32.86 8.06 -32.53 6.73 -32.19 5.38 C-30.79 5.21 -30.79 5.21 -29.37 5.04 C-28.13 4.88 -26.9 4.73 -25.62 4.56 C-24.41 4.41 -23.19 4.26 -21.93 4.11 C-18.17 3.53 -18.17 3.53 -14.92 1.82 C-10.13 -0.37 -5.18 -0.07 0 0 Z M-8.31 47.88 C-11.19 50.38 -11.19 50.38 -14.56 50.69 C-15.86 50.53 -15.86 50.53 -17.19 50.38 C-17.19 51.37 -17.19 52.36 -17.19 53.38 C-18.18 53.38 -19.17 53.38 -20.19 53.38 C-20.52 54.03 -20.85 54.69 -21.19 55.38 C-23.5 55.38 -25.81 55.38 -28.19 55.38 C-28.19 58.01 -28.19 60.66 -28.19 63.38 C-29.18 63.7 -30.17 64.03 -31.19 64.38 C-31.19 65.03 -31.19 65.69 -31.19 66.38 C-31.85 66.38 -32.51 66.38 -33.19 66.38 C-33.5 67.47 -33.81 68.56 -34.12 69.69 C-34.77 71.93 -35.45 74.16 -36.19 76.38 C-36.85 76.38 -37.51 76.38 -38.19 76.38 C-38.19 84.95 -38.19 93.53 -38.19 102.38 C-37.53 102.38 -36.87 102.38 -36.19 102.38 C-36.04 103.34 -35.9 104.31 -35.75 105.31 C-35.51 108.24 -35.51 108.24 -34.19 109.38 C-33.82 111.7 -33.49 114.04 -33.19 116.38 C-32.53 116.38 -31.87 116.38 -31.19 116.38 C-30.86 117.37 -30.53 118.36 -30.19 119.38 C-29.2 118.88 -29.2 118.88 -28.19 118.38 C-28 119.12 -27.82 119.86 -27.62 120.62 C-25.67 124.36 -22.83 125.6 -19.19 127.38 C-18.18 127.91 -17.17 128.45 -16.12 129 C-9.79 131.97 -4.59 132.69 2.31 132.62 C3.14 132.63 3.97 132.64 4.82 132.65 C10.42 132.63 15.65 132.54 19.81 128.38 C22.47 126.83 23.66 126.38 26.81 126.38 C27.31 124.89 27.31 124.89 27.81 123.38 C27.48 122.72 27.15 122.06 26.81 121.38 C28.3 121.87 28.3 121.87 29.81 122.38 C30.8 121.72 31.79 121.06 32.81 120.38 C33.06 117.79 33.06 117.79 32.81 115.38 C33.8 115.05 34.79 114.72 35.81 114.38 C38.03 110.68 38.81 108.74 38.81 104.38 C39.8 104.05 40.79 103.72 41.81 103.38 C43.37 93.55 44.69 83.33 39.82 74.3 C38.81 72.38 38.81 72.38 37.88 68.56 C36.6 64.75 35.02 63.68 31.81 61.38 C31.32 59.89 31.32 59.89 30.81 58.38 C27.76 55.34 27.76 55.34 23.81 54.38 C23.57 53.74 23.33 53.11 23.09 52.45 C22 50.22 22 50.22 19.79 49.55 C19.01 49.41 18.24 49.27 17.44 49.12 C16.67 48.98 15.9 48.83 15.1 48.67 C12.54 48.29 12.54 48.29 8.81 48.38 C8.81 47.72 8.81 47.06 8.81 46.38 C-0.33 44.28 -0.33 44.28 -8.31 47.88 Z M-68.19 141.38 C-67.19 143.38 -67.19 143.38 -67.19 143.38 Z " fill="#F8F8F8" transform="translate(785.1875,101.625)"/>
<path d="M0 0 C0.76 -0 1.52 -0 2.3 -0 C3.89 -0 5.49 -0 7.08 0 C9.52 0.01 11.96 0 14.4 -0 C15.95 -0 17.51 -0 19.06 0 C20.15 -0 20.15 -0 21.26 -0.01 C27.88 0.02 27.88 0.02 30.9 1.13 C31.58 1.88 31.58 1.88 32.27 2.63 C34.59 4.77 36.83 4.79 39.9 5.13 C39.9 5.79 39.9 6.45 39.9 7.13 C40.46 7.26 41.01 7.38 41.59 7.51 C44.12 8.19 46.48 9.12 48.9 10.13 C48.9 10.79 48.9 11.45 48.9 12.13 C49.43 12.22 49.97 12.3 50.52 12.38 C55.56 13.97 59.35 17.33 62.9 21.13 C63.89 22.12 63.89 22.12 64.9 23.13 C65.54 23.94 66.18 24.74 66.84 25.57 C68.71 28.08 68.71 28.08 70.65 29.57 C72.57 31.97 72.1 34.17 71.9 37.13 C72.89 37.46 73.88 37.79 74.9 38.13 C74.9 38.79 74.9 39.45 74.9 40.13 C75.56 40.13 76.22 40.13 76.9 40.13 C76.9 42.44 76.9 44.75 76.9 47.13 C77.89 47.46 78.88 47.79 79.9 48.13 C82.69 52.32 82.32 56.45 82.46 61.33 C82.62 65.08 82.77 66.93 84.9 70.13 C85.16 72.04 85.16 72.04 85.17 74.23 C85.18 75.47 85.18 75.47 85.19 76.74 C85.19 78.11 85.19 78.11 85.19 79.5 C85.2 80.46 85.2 81.42 85.21 82.41 C85.23 85.58 85.23 88.76 85.23 91.94 C85.24 94.15 85.25 96.35 85.25 98.56 C85.27 103.18 85.27 107.81 85.27 112.44 C85.27 118.37 85.3 124.3 85.33 130.24 C85.35 134.79 85.36 139.35 85.36 143.9 C85.36 146.09 85.37 148.28 85.38 150.47 C85.4 153.52 85.4 156.58 85.38 159.64 C85.4 160.55 85.41 161.45 85.42 162.39 C85.36 168.48 85.36 168.48 83.11 171.69 C79.69 173.91 76.24 173.68 72.3 173.63 C71.05 173.63 71.05 173.63 69.78 173.63 C68.03 173.63 66.28 173.62 64.53 173.6 C61.84 173.57 59.16 173.58 56.47 173.59 C54.77 173.59 53.07 173.58 51.36 173.57 C50.56 173.57 49.76 173.57 48.93 173.58 C43.48 173.48 43.48 173.48 40.9 171.93 C39.54 169.49 39.46 167.68 39.39 164.88 C39.35 163.74 39.32 162.61 39.28 161.43 C39.26 160.16 39.23 158.88 39.21 157.57 C39.18 156.21 39.14 154.85 39.11 153.49 C38.7 135.64 38.85 117.78 38.93 99.93 C38.94 98.69 38.94 97.45 38.95 96.18 C38.96 93.85 38.97 91.51 38.99 89.18 C39.02 77.55 39.02 77.55 36.52 66.26 C36.29 65.54 36.05 64.82 35.81 64.08 C35 62.05 35 62.05 33.3 60.56 C31.9 59.13 31.9 59.13 31.9 56.13 C31.24 56.13 30.58 56.13 29.9 56.13 C27.27 53.76 27.27 53.76 24.9 51.13 C24.9 50.47 24.9 49.81 24.9 49.13 C23.58 49.13 22.26 49.13 20.9 49.13 C20.9 48.47 20.9 47.81 20.9 47.13 C17.36 47.05 13.82 46.99 10.27 46.95 C9.27 46.92 8.28 46.9 7.25 46.87 C1.71 46.81 -2.36 46.91 -7.1 50.13 C-8.12 51.45 -9.12 52.78 -10.1 54.13 C-11.09 54.13 -12.08 54.13 -13.1 54.13 C-13.18 54.71 -13.27 55.29 -13.35 55.88 C-14.52 59.38 -16.83 61.5 -20.1 63.13 C-20.09 64.44 -20.08 65.75 -20.07 67.09 C-19.99 79.39 -19.93 91.69 -19.89 104 C-19.87 110.32 -19.85 116.65 -19.8 122.97 C-19.76 129.07 -19.73 135.17 -19.72 141.27 C-19.71 143.6 -19.7 145.93 -19.68 148.26 C-19.65 151.52 -19.65 154.78 -19.65 158.04 C-19.63 159.49 -19.63 159.49 -19.6 160.97 C-19.64 167.52 -19.64 167.52 -22 170.7 C-26.14 173.52 -29.67 173.28 -34.54 173.27 C-35.37 173.27 -36.21 173.27 -37.07 173.27 C-38.84 173.27 -40.61 173.27 -42.38 173.26 C-45.09 173.26 -47.8 173.26 -50.52 173.27 C-52.23 173.27 -53.95 173.27 -55.66 173.27 C-56.89 173.27 -56.89 173.27 -58.13 173.27 C-63.87 173.25 -63.87 173.25 -66.1 172.13 C-67.24 168.72 -67.22 166.11 -67.22 162.51 C-67.22 161.83 -67.22 161.16 -67.22 160.46 C-67.23 158.19 -67.22 155.92 -67.22 153.65 C-67.21 152.02 -67.21 150.39 -67.22 148.77 C-67.22 144.35 -67.21 139.93 -67.2 135.51 C-67.2 130.89 -67.2 126.28 -67.19 121.66 C-67.19 112.92 -67.18 104.17 -67.17 95.43 C-67.16 85.47 -67.16 75.52 -67.15 65.57 C-67.14 45.09 -67.12 24.61 -67.1 4.13 C-62.31 2.53 -58.5 2.58 -53.79 4.45 C-51.1 6.13 -51.1 6.13 -49.1 9.13 C-48.4 9.98 -47.7 10.82 -46.98 11.7 C-45.1 14.13 -45.1 14.13 -45.1 16.13 C-40.19 14.65 -36.17 13.33 -32.1 10.13 C-29.35 9.45 -29.35 9.45 -27.1 9.13 C-27.1 8.14 -27.1 7.15 -27.1 6.13 C-20.59 4.22 -20.59 4.22 -17.23 3.63 C-16.53 3.47 -15.82 3.3 -15.1 3.13 C-14.77 2.47 -14.44 1.81 -14.1 1.13 C-9.43 0.01 -4.77 -0.01 0 0 Z M-12.1 48.13 C-11.1 50.13 -11.1 50.13 -11.1 50.13 Z M-14.1 51.13 C-15.59 53.11 -15.59 53.11 -17.1 55.13 C-15.78 54.47 -14.46 53.81 -13.1 53.13 C-13.43 52.47 -13.76 51.81 -14.1 51.13 Z " fill="#F8F8F8" transform="translate(962.1015625,105.8671875)"/>
<path d="M0 0 C1.12 -0.01 2.24 -0.02 3.39 -0.03 C4.61 -0.02 5.84 -0.01 7.1 -0.01 C8.39 -0.01 9.68 -0.02 11.01 -0.02 C14.55 -0.04 18.09 -0.03 21.63 -0.02 C25.33 -0.01 29.04 -0.02 32.74 -0.03 C38.96 -0.03 45.18 -0.02 51.4 -0.01 C58.59 0.01 65.79 0 72.98 -0.02 C79.15 -0.03 85.33 -0.03 91.5 -0.02 C95.19 -0.02 98.88 -0.02 102.56 -0.03 C106.68 -0.04 110.79 -0.02 114.9 -0.01 C116.12 -0.01 117.34 -0.02 118.6 -0.03 C119.72 -0.02 120.84 -0.01 121.99 0 C122.97 0 123.94 0 124.94 0 C127.9 0.44 129.29 1.41 131.5 3.38 C131.17 5.03 130.84 6.68 130.5 8.38 C128.85 8.38 127.2 8.38 125.5 8.38 C125.83 11.02 126.16 13.66 126.5 16.38 C125.67 16.75 124.85 17.12 124 17.51 C123.17 18.12 122.35 18.74 121.5 19.38 C121.45 21.38 121.46 23.38 121.5 25.38 C119.62 27.76 119.62 27.76 117.5 29.38 C116.84 29.38 116.18 29.38 115.5 29.38 C115.5 31.36 115.5 33.34 115.5 35.38 C114.84 35.38 114.18 35.38 113.5 35.38 C113.27 36.29 113.04 37.2 112.81 38.13 C111.5 41.38 111.5 41.38 108.93 43.26 C106.2 45.64 106.09 46.2 105.68 49.63 C105.59 51.49 105.59 51.49 105.5 53.38 C103.85 53.71 102.2 54.04 100.5 54.38 C100.58 55.45 100.66 56.53 100.75 57.63 C100.5 61.38 100.5 61.38 98.62 63.82 C96.5 65.38 96.5 65.38 94.5 65.38 C94.72 66.1 94.95 66.82 95.18 67.57 C95.5 70.38 95.5 70.38 94.25 73.19 C93.38 74.28 93.38 74.28 92.5 75.38 C91.51 75.38 90.52 75.38 89.5 75.38 C89.54 76.11 89.59 76.84 89.64 77.59 C89.48 80.71 88.77 82.37 87.25 85.07 C86.83 85.84 86.41 86.6 85.98 87.39 C84.34 89.59 83.02 90.37 80.5 91.38 C80.5 93.36 80.5 95.34 80.5 97.38 C79.01 97.88 79.01 97.88 77.5 98.38 C77.5 99.04 77.5 99.7 77.5 100.38 C76.51 100.38 75.52 100.38 74.5 100.38 C74.5 102.69 74.5 105 74.5 107.38 C73.84 107.38 73.18 107.38 72.5 107.38 C72.5 108.37 72.5 109.36 72.5 110.38 C71.51 110.38 70.52 110.38 69.5 110.38 C69.5 112.36 69.5 114.34 69.5 116.38 C68.84 116.38 68.18 116.38 67.5 116.38 C66.03 120.29 66.03 120.29 65.5 124.38 C66.29 124.38 67.09 124.38 67.91 124.37 C75.42 124.35 82.92 124.34 90.43 124.33 C94.29 124.32 98.14 124.32 102 124.31 C105.72 124.29 109.45 124.29 113.17 124.29 C114.59 124.28 116.01 124.28 117.43 124.28 C119.42 124.27 121.41 124.27 123.39 124.27 C125.09 124.26 125.09 124.26 126.83 124.26 C129.5 124.38 129.5 124.38 131.5 125.38 C131.5 139.9 131.5 154.42 131.5 169.38 C128.91 170.67 127.04 170.52 124.15 170.53 C123.02 170.54 121.88 170.55 120.71 170.56 C118.84 170.57 118.84 170.57 116.92 170.57 C114.96 170.59 114.96 170.59 112.95 170.6 C108.59 170.62 104.23 170.64 99.88 170.65 C98.38 170.66 96.88 170.67 95.38 170.67 C89.15 170.69 82.91 170.71 76.68 170.72 C67.74 170.74 58.8 170.77 49.86 170.83 C43.58 170.87 37.3 170.89 31.02 170.89 C27.26 170.9 23.51 170.91 19.75 170.94 C15.57 170.98 11.38 170.97 7.2 170.96 C5.95 170.98 4.7 171 3.42 171.01 C2.28 171.01 1.14 171 -0.03 170.99 C-1.02 170.99 -2.01 171 -3.03 171 C-5.5 170.38 -5.5 170.38 -7.29 167.97 C-9.44 163.39 -9.44 163.39 -9.5 161.38 C-7.72 158.73 -6.38 156.82 -3.5 155.38 C-2.85 152.35 -2.85 152.35 -2.5 149.38 C-1.51 149.05 -0.52 148.72 0.5 148.38 C-0.16 147.72 -0.82 147.06 -1.5 146.38 C-0.18 146.38 1.14 146.38 2.5 146.38 C2.83 144.4 3.16 142.42 3.5 140.38 C4.49 140.38 5.48 140.38 6.5 140.38 C6.46 139.66 6.41 138.94 6.37 138.19 C6.51 135.11 7.06 133.1 8.5 130.38 C9.49 130.05 10.48 129.72 11.5 129.38 C11.6 128.64 11.7 127.9 11.81 127.13 C12.55 124.18 13.44 122.6 15.5 120.38 C16.16 120.38 16.82 120.38 17.5 120.38 C17.83 118.07 18.16 115.76 18.5 113.38 C19.49 113.38 20.48 113.38 21.5 113.38 C21.17 112.39 20.84 111.4 20.5 110.38 C21.16 110.38 21.82 110.38 22.5 110.38 C22.83 107.74 23.16 105.1 23.5 102.38 C23.83 103.04 24.16 103.7 24.5 104.38 C25.49 103.39 26.48 102.4 27.5 101.38 C26.51 100.89 26.51 100.89 25.5 100.38 C25.99 99.93 26.49 99.47 27 99.01 C28.72 97.5 28.72 97.5 28.5 95.38 C30.48 94.89 30.48 94.89 32.5 94.38 C32.17 92.73 31.84 91.08 31.5 89.38 C32.16 89.38 32.82 89.38 33.5 89.38 C33.6 88.76 33.7 88.14 33.81 87.51 C34.5 85.38 34.5 85.38 37.5 83.38 C38.23 79.81 38.23 79.81 38.5 76.38 C39.49 76.38 40.48 76.38 41.5 76.38 C41.17 75.72 40.84 75.06 40.5 74.38 C41.16 74.05 41.82 73.72 42.5 73.38 C44.48 70.45 45.85 67.87 46.5 64.38 C47.16 64.38 47.82 64.38 48.5 64.38 C48.83 62.4 49.16 60.42 49.5 58.38 C50.49 58.05 51.48 57.72 52.5 57.38 C52.96 55.74 52.96 55.74 53.43 54.07 C54.55 50.18 55.6 49.03 58.5 46.38 C57.7 46.39 56.91 46.39 56.09 46.39 C48.62 46.43 41.14 46.46 33.67 46.48 C29.83 46.5 25.98 46.51 22.14 46.53 C18.43 46.55 14.72 46.57 11.02 46.57 C9.6 46.57 8.19 46.58 6.77 46.59 C4.79 46.61 2.81 46.61 0.83 46.61 C-0.3 46.61 -1.43 46.62 -2.59 46.62 C-6.37 46.31 -8.48 45.33 -11.23 42.79 C-13.1 39.24 -12.87 35.8 -12.8 31.9 C-12.79 31.08 -12.79 30.27 -12.78 29.43 C-12.77 26.83 -12.73 24.23 -12.69 21.63 C-12.68 19.87 -12.66 18.1 -12.65 16.34 C-12.62 12.02 -12.56 7.7 -12.5 3.38 C-11.51 3.38 -10.52 3.38 -9.5 3.38 C-8.89 2.89 -8.29 2.41 -7.66 1.9 C-4.93 -0.03 -3.33 0 0 0 Z " fill="#FAFAFA" transform="translate(559.5032958984375,108.61904907226563)"/>
<path d="M0 0 C3.46 1.26 5.96 3.66 7.97 6.71 C7.97 7.7 7.97 8.69 7.97 9.71 C8.63 9.71 9.29 9.71 9.97 9.71 C10.4 10.5 10.83 11.28 11.28 12.09 C13.24 15.13 14.57 15.7 17.97 16.71 C18.24 16.08 18.5 15.44 18.78 14.78 C19.97 12.71 19.97 12.71 22.97 11.71 C23.3 11.05 23.63 10.39 23.97 9.71 C23.97 10.37 23.97 11.03 23.97 11.71 C25.29 11.05 26.61 10.39 27.97 9.71 C27.97 9.05 27.97 8.39 27.97 7.71 C33.6 5.79 33.6 5.79 36.28 5.21 C36.84 5.05 37.39 4.88 37.97 4.71 C38.3 4.05 38.63 3.39 38.97 2.71 C43.77 1.16 48.98 1.63 53.97 1.71 C54.3 1.05 54.63 0.39 54.97 -0.29 C61.29 -0.36 67.6 -0.41 73.92 -0.45 C76.07 -0.47 78.22 -0.49 80.37 -0.51 C83.46 -0.55 86.55 -0.56 89.64 -0.58 C90.6 -0.59 91.55 -0.61 92.54 -0.63 C96.31 -0.63 99.46 -0.44 103.08 0.65 C106.16 4.02 105.59 7.58 105.46 11.98 C105.45 12.88 105.44 13.79 105.44 14.72 C105.41 17.62 105.34 20.51 105.28 23.4 C105.26 25.36 105.23 27.33 105.21 29.29 C105.16 34.1 105.07 38.91 104.97 43.71 C103.32 44.04 101.67 44.37 99.97 44.71 C99.97 45.04 99.97 45.37 99.97 45.71 C88.3 45.71 76.64 45.71 64.97 45.71 C63.57 46.18 62.17 46.66 60.78 47.15 C57.98 48.11 55.68 48.75 52.72 49.09 C48.93 49.95 47.52 51.84 44.97 54.71 C43.34 56.42 41.68 58.1 39.97 59.71 C39.31 59.71 38.65 59.71 37.97 59.71 C38.31 60.83 38.31 60.83 38.66 61.96 C38.97 64.71 38.97 64.71 37.66 67.03 C37.1 67.58 36.54 68.14 35.97 68.71 C35.31 68.71 34.65 68.71 33.97 68.71 C33.97 69.95 33.98 71.19 33.98 72.46 C34.02 84.08 34.05 95.71 34.07 107.34 C34.08 113.31 34.1 119.29 34.12 125.27 C34.14 131.03 34.15 136.79 34.16 142.56 C34.16 144.76 34.17 146.97 34.18 149.17 C34.19 152.25 34.2 155.32 34.2 158.4 C34.2 159.32 34.21 160.24 34.22 161.18 C34.21 162.02 34.21 162.85 34.21 163.72 C34.21 164.44 34.21 165.17 34.21 165.92 C33.97 167.71 33.97 167.71 31.97 169.71 C29.16 169.93 26.45 170.02 23.64 170.02 C22.81 170.02 21.98 170.02 21.13 170.03 C19.37 170.03 17.61 170.03 15.86 170.03 C13.18 170.03 10.5 170.05 7.82 170.08 C6.11 170.08 4.41 170.08 2.7 170.08 C1.9 170.09 1.1 170.1 0.28 170.11 C-4.28 170.07 -7.37 169.74 -11.03 166.71 C-12.16 163.34 -12.15 160.8 -12.15 157.24 C-12.15 156.58 -12.15 155.92 -12.15 155.24 C-12.16 153.03 -12.15 150.81 -12.14 148.59 C-12.14 147.01 -12.14 145.42 -12.15 143.84 C-12.15 139.52 -12.14 135.21 -12.13 130.9 C-12.13 126.4 -12.13 121.89 -12.12 117.39 C-12.12 108.86 -12.11 100.32 -12.1 91.79 C-12.09 82.08 -12.09 72.37 -12.08 62.66 C-12.07 42.68 -12.05 22.7 -12.03 2.71 C-7.52 0.38 -4.98 -0.85 0 0 Z " fill="#FBFBFB" transform="translate(437.03125,109.28515625)"/>
<path d="M0 0 C36.3 0 72.6 0 110 0 C110 0.66 110 1.32 110 2 C118.58 2 127.16 2 136 2 C136 2.33 136 2.66 136 3 C118.71 3.02 101.42 3.04 84.13 3.05 C76.1 3.06 68.08 3.06 60.05 3.08 C53.05 3.09 46.06 3.09 39.06 3.09 C35.36 3.1 31.65 3.1 27.95 3.11 C23.82 3.11 19.68 3.11 15.55 3.11 C13.7 3.12 13.7 3.12 11.81 3.12 C10.69 3.12 9.57 3.12 8.41 3.12 C6.94 3.12 6.94 3.12 5.45 3.12 C3 3 3 3 0 2 C0 1.34 0 0.68 0 0 Z " fill="#DFDFDF" transform="translate(71,58)"/>
<path d="M0 0 C10.94 -0.03 21.87 -0.05 32.81 -0.06 C34.02 -0.06 34.02 -0.06 35.26 -0.07 C60.43 -0.09 85.57 0.11 110.73 0.91 C113.15 0.98 115.57 1 118 1 C117.67 1.99 117.34 2.98 117 4 C115.75 3.96 114.51 3.93 113.22 3.89 C90.76 3.27 68.46 2.83 46.01 3.88 C30.66 4.49 15.33 3.94 0 3 C0 2.01 0 1.02 0 0 Z " fill="#E2E2E2" transform="translate(566,114)"/>
<path d="M0 0 C3.97 -0.02 7.94 -0.04 11.91 -0.05 C13.26 -0.06 14.61 -0.07 15.96 -0.08 C17.9 -0.09 19.84 -0.09 21.78 -0.1 C23.53 -0.11 23.53 -0.11 25.32 -0.11 C28 0 28 0 29 1 C32.84 1.14 36.32 1.18 40 0 C41.13 3.61 41.11 6.97 41.1 10.73 C41.09 12.03 41.09 13.33 41.09 14.66 C41.08 16.02 41.07 17.39 41.06 18.75 C41.06 20.13 41.05 21.51 41.05 22.89 C41.04 26.26 41.02 29.63 41 33 C40.01 32.67 39.02 32.34 38 32 C37.67 22.76 37.34 13.52 37 4 C33.41 4.06 33.41 4.06 29.75 4.12 C19.75 4.21 9.92 3.15 0 2 C0 1.34 0 0.68 0 0 Z " fill="#E2E2E2" transform="translate(494,114)"/>
<path d="M0 0 C1.78 0 1.78 0 3.6 0 C7.37 0.01 11.14 0.02 14.91 0.04 C17.47 0.04 20.04 0.04 22.6 0.05 C28.87 0.06 35.14 0.08 41.41 0.1 C41.41 0.76 41.41 1.42 41.41 2.1 C47.35 2.1 53.29 2.1 59.41 2.1 C59.41 2.43 59.41 2.76 59.41 3.1 C50.45 3.12 41.5 3.14 32.54 3.15 C28.39 3.15 24.23 3.16 20.07 3.17 C16.05 3.18 12.03 3.19 8.01 3.19 C6.48 3.19 4.95 3.2 3.43 3.2 C-4.63 3.23 -12.59 3.16 -20.59 2.1 C-20.59 1.77 -20.59 1.44 -20.59 1.1 C-13.7 0.04 -6.96 -0.03 0 0 Z " fill="#DFDEDE" transform="translate(146.59375,236.90234375)"/>
<path d="M0 0 C42.24 0 84.48 0 128 0 C128 0.33 128 0.66 128 1 C85.76 1 43.52 1 0 1 C0 0.67 0 0.34 0 0 Z " fill="#FDFDFD" transform="translate(555,107)"/>
<path d="M0 0 C1.4 0.01 2.79 0.01 4.19 0.01 C7.56 0.03 10.94 0.04 14.31 0.06 C14.31 0.72 14.31 1.38 14.31 2.06 C20.58 2.06 26.85 2.06 33.31 2.06 C33.31 2.39 33.31 2.72 33.31 3.06 C26.86 3.09 20.4 3.11 13.95 3.12 C11.76 3.12 9.56 3.13 7.37 3.14 C-15.98 3.23 -15.98 3.23 -26.69 2.06 C-26.69 1.73 -26.69 1.4 -26.69 1.06 C-17.78 0.02 -8.95 -0.06 0 0 Z " fill="#DDDCDC" transform="translate(137.6875,149.9375)"/>
<path d="M0 0 C17.36 -0.11 34.67 -0.17 52 1 C52 1.66 52 2.32 52 3 C34.97 3.11 18.01 3.05 1 2 C0.67 1.34 0.34 0.68 0 0 Z " fill="#D6D4D4" transform="translate(943,114)"/>
<path d="M0 0 C0.23 0.58 0.46 1.16 0.7 1.75 C2.34 4.59 4.27 6.01 6.88 8 C11.35 11.57 15.55 15.29 19.62 19.31 C20.15 19.82 20.67 20.32 21.2 20.84 C23.86 23.5 25.25 25.34 26 29 C26.99 29.33 27.98 29.66 29 30 C28.67 31.32 28.34 32.64 28 34 C27.34 33.67 26.68 33.34 26 33 C26 32.01 26 31.02 26 30 C25.01 29.67 24.02 29.34 23 29 C22.31 27.68 21.65 26.34 21 25 C14.67 17.76 7.16 10.32 -2 7 C-1.34 4.69 -0.68 2.38 0 0 Z " fill="#A29E9C" transform="translate(1187,212)"/>
<path d="M0 0 C3.97 -0.02 7.94 -0.04 11.91 -0.05 C13.26 -0.06 14.61 -0.07 15.96 -0.08 C17.9 -0.09 19.84 -0.09 21.78 -0.1 C23.53 -0.11 23.53 -0.11 25.32 -0.11 C28 0 28 0 29 1 C31.33 1.37 33.66 1.7 36 2 C36 2.33 36 2.66 36 3 C24.21 5.6 11.85 3.31 0 2 C0 1.34 0 0.68 0 0 Z " fill="#DDDCDC" transform="translate(494,114)"/>
<path d="M0 0 C0.83 0.01 1.67 0.01 2.52 0.02 C3.42 0.02 4.32 0.02 5.25 0.03 C6.67 0.04 6.67 0.04 8.11 0.05 C9.06 0.06 10.01 0.06 10.99 0.06 C13.34 0.08 15.7 0.09 18.05 0.11 C18.05 0.77 18.05 1.43 18.05 2.11 C25.31 2.11 32.57 2.11 40.05 2.11 C40.05 2.44 40.05 2.77 40.05 3.11 C34.41 3.16 28.77 3.2 23.13 3.22 C21.21 3.23 19.29 3.25 17.37 3.26 C14.61 3.29 11.85 3.3 9.09 3.31 C8.23 3.32 7.37 3.33 6.49 3.34 C5.29 3.34 5.29 3.34 4.06 3.34 C3.36 3.35 2.66 3.35 1.93 3.35 C0.05 3.11 0.05 3.11 -2.95 1.11 C-1.95 0.11 -1.95 0.11 0 0 Z " fill="#D9D8D8" transform="translate(642.949462890625,241.886474609375)"/>
<path d="M0 0 C2.48 0.5 2.48 0.5 5 1 C5 2.32 5 3.64 5 5 C4.5 4.01 4.5 4.01 4 3 C-17.12 3 -38.24 3 -60 3 C-60 2.67 -60 2.34 -60 2 C-40.2 2 -20.4 2 0 2 C0 1.34 0 0.68 0 0 Z " fill="#050605" transform="translate(614,152)"/>
<path d="M0 0 C1.2 0 2.4 0.01 3.63 0.01 C6.57 0.03 9.5 0.04 12.44 0.06 C12.44 0.72 12.44 1.38 12.44 2.06 C3.81 6.38 -13 2.63 -22.56 2.06 C-22.56 1.73 -22.56 1.4 -22.56 1.06 C-15.01 0.04 -7.61 -0.05 0 0 Z " fill="#D7D5D5" transform="translate(793.5625,108.9375)"/>
<path d="M0 0 C0.33 0 0.66 0 1 0 C1.9 5.36 2.15 10.51 2.12 15.94 C2.13 16.7 2.13 17.46 2.14 18.24 C2.13 23.24 1.71 28.05 1 33 C0.34 33 -0.32 33 -1 33 C-1.02 28.94 -1.04 24.89 -1.05 20.83 C-1.06 19.45 -1.07 18.07 -1.08 16.69 C-1.09 14.71 -1.09 12.72 -1.1 10.73 C-1.1 9.54 -1.11 8.35 -1.11 7.12 C-1.02 4.53 -0.77 2.45 0 0 Z " fill="#E1E1E1" transform="translate(709,184)"/>
<path d="M0 0 C0.66 0 1.32 0 2 0 C1.51 4.4 0.22 6.05 -3 9 C-3.66 9.87 -4.32 10.73 -5 11.62 C-6.99 13.99 -8.26 14.76 -11 16 C-12.71 17.54 -12.71 17.54 -14 19 C-14.66 18.67 -15.32 18.34 -16 18 C-15.51 16.51 -15.51 16.51 -15 15 C-12.94 14.31 -12.94 14.31 -11 14 C-11 13.01 -11 12.02 -11 11 C-7.67 8 -7.67 8 -5 8 C-4.73 7.42 -4.46 6.84 -4.19 6.25 C-2.97 3.94 -1.7 1.98 0 0 Z " fill="#B9B6B5" transform="translate(1158,209)"/>
<path d="M0 0 C21.78 0 43.56 0 66 0 C66 0.33 66 0.66 66 1 C44.22 1 22.44 1 0 1 C0 0.67 0 0.34 0 0 Z " fill="#191816" transform="translate(109,189)"/>
<path d="M0 0 C3.58 1.19 4.16 2.29 6.31 5.31 C9.26 9.25 11.8 11.52 16 14 C17.88 15.62 17.88 15.62 19 17 C19 17.66 19 18.32 19 19 C13.68 18.67 11.28 15.79 7.81 12.12 C7.28 11.58 6.75 11.04 6.2 10.48 C0 4.1 0 4.1 0 0 Z " fill="#A4A09D" transform="translate(723,244)"/>
<path d="M0 0 C-0.33 0.99 -0.66 1.98 -1 3 C-15.85 2.67 -30.7 2.34 -46 2 C-46 1.67 -46 1.34 -46 1 C-41.54 0.85 -37.08 0.71 -32.61 0.57 C-31.1 0.52 -29.59 0.48 -28.08 0.43 C-18.72 0.12 -9.37 -0.07 0 0 Z " fill="#C3BFBE" transform="translate(684,115)"/>
<path d="M0 0 C0 0.66 0 1.32 0 2 C7.92 1.5 7.92 1.5 16 1 C16 1.66 16 2.32 16 3 C2.29 3.12 -11.32 2.82 -25 2 C-25 1.67 -25 1.34 -25 1 C-16.65 0.38 -8.38 -0.18 0 0 Z " fill="#C3BFBE" transform="translate(314,109)"/>
<path d="M0 0 C0 9.9 0 19.8 0 30 C-0.99 29.34 -1.98 28.68 -3 28 C-3.19 24.88 -3.19 24.88 -3 22 C-2.34 22 -1.68 22 -1 22 C-1.65 11.46 -1.65 11.46 -3 1 C-1 0 -1 0 0 0 Z " fill="#DBDADA" transform="translate(557,116)"/>
<path d="M0 0 C0 0.66 0 1.32 0 2 C5.94 2 11.88 2 18 2 C18 2.33 18 2.66 18 3 C4.29 3.13 -9.32 2.88 -23 2 C-23 1.67 -23 1.34 -23 1 C-15.32 0.39 -7.71 -0.13 0 0 Z " fill="#C1BDBC" transform="translate(1157,109)"/>
<path d="M0 0 C0.33 1.32 0.66 2.64 1 4 C0.38 4.25 -0.24 4.5 -0.88 4.75 C-3.35 6.21 -3.95 7.38 -5 10 C-5.66 10 -6.32 10 -7 10 C-7.66 11.32 -8.32 12.64 -9 14 C-9.99 14 -10.98 14 -12 14 C-10.43 10.16 -7.98 7.84 -5 5 C-3.61 3.61 -3.61 3.61 -2.19 2.19 C-1.1 1.1 -1.1 1.1 0 0 Z " fill="#A4A09E" transform="translate(1210,147)"/>
<path d="M0 0 C-0.56 3.8 -2.18 5.59 -4.88 8.25 C-5.57 8.96 -6.27 9.66 -6.99 10.39 C-9 12 -9 12 -12 12 C-11.67 11.01 -11.34 10.02 -11 9 C-10.34 9 -9.68 9 -9 9 C-8.66 8.16 -8.66 8.16 -8.31 7.31 C-6.5 4.11 -3.95 0 0 0 Z " fill="#A5A19F" transform="translate(1185,179)"/>
<path d="M0 0 C0.99 0 1.98 0 3 0 C3 0.66 3 1.32 3 2 C12.9 2 22.8 2 33 2 C33 2.33 33 2.66 33 3 C21.78 3 10.56 3 -1 3 C-0.67 2.01 -0.34 1.02 0 0 Z " fill="#040504" transform="translate(504,152)"/>
<path d="M0 0 C3.51 1.4 4.43 2.64 6 6 C6.99 6.66 7.98 7.32 9 8 C8.67 9.32 8.34 10.64 8 12 C4.84 9.61 2.04 7.44 0 4 C0 2.68 0 1.36 0 0 Z " fill="#AAA6A4" transform="translate(1087,244)"/>
<path d="M0 0 C0.33 0 0.66 0 1 0 C1 12.21 1 24.42 1 37 C0.67 37 0.34 37 0 37 C0 24.79 0 12.58 0 0 Z " fill="#030403" transform="translate(692,237)"/>
<path d="M0 0 C0.31 0.84 0.31 0.84 0.62 1.69 C2.55 4.93 5.04 6.68 8 9 C7.67 9.99 7.34 10.98 7 12 C6.44 11.55 5.89 11.09 5.31 10.62 C2.95 8.96 0.71 7.98 -2 7 C-1.34 4.69 -0.68 2.38 0 0 Z " fill="#72706E" transform="translate(1187,212)"/>
<path d="M0 0 C10.89 0 21.78 0 33 0 C33 0.33 33 0.66 33 1 C22.11 1 11.22 1 0 1 C0 0.67 0 0.34 0 0 Z " fill="#000100" transform="translate(1138,281)"/>
<path d="M0 0 C10.56 0 21.12 0 32 0 C32 0.33 32 0.66 32 1 C21.44 1 10.88 1 0 1 C0 0.67 0 0.34 0 0 Z " fill="#FDFDFD" transform="translate(501,107)"/>
<path d="M0 0 C9.9 0 19.8 0 30 0 C30 0.33 30 0.66 30 1 C20.1 1 10.2 1 0 1 C0 0.67 0 0.34 0 0 Z " fill="#000100" transform="translate(295,281)"/>
<path d="M0 0 C1.65 0.02 1.65 0.02 3.34 0.04 C5 0.05 5 0.05 6.69 0.06 C7.54 0.07 8.4 0.09 9.28 0.1 C8.95 1.09 8.62 2.08 8.28 3.1 C-0.29 3.38 -0.29 3.38 -3.72 1.1 C-2.72 0.1 -2.72 0.1 0 0 Z " fill="#B3AFAE" transform="translate(674.72265625,114.90234375)"/>
<path d="M0 0 C9.57 0 19.14 0 29 0 C29 0.33 29 0.66 29 1 C19.43 1 9.86 1 0 1 C0 0.67 0 0.34 0 0 Z " fill="#000100" transform="translate(773,281)"/>
<path d="M0 0 C4.25 0.47 6.2 2.97 9 6 C8.67 6.66 8.34 7.32 8 8 C4.64 6.56 2.41 4.75 0 2 C0 1.34 0 0.68 0 0 Z " fill="#888684" transform="translate(815,154)"/>
<path d="M0 0 C0.33 0 0.66 0 1 0 C1.15 7.39 0.71 14.64 0 22 C-0.33 22 -0.66 22 -1 22 C-1.33 17.05 -1.66 12.1 -2 7 C-1.34 7 -0.68 7 0 7 C0 4.69 0 2.38 0 0 Z " fill="#DBDADA" transform="translate(434,123)"/>
<path d="M0 0 C0.33 0 0.66 0 1 0 C1 3.63 1 7.26 1 11 C0.67 11 0.34 11 0 11 C0 7.37 0 3.74 0 0 Z " fill="#0C0C0A" transform="translate(748,179)"/>
<path d="M0 0 C0.33 0 0.66 0 1 0 C1 3.3 1 6.6 1 10 C0.67 10 0.34 10 0 10 C0 6.7 0 3.4 0 0 Z " fill="#0D0D0C" transform="translate(748,193)"/>
<path d="M0 0 C0.33 0 0.66 0 1 0 C1 1.65 1 3.3 1 5 C0.34 5 -0.32 5 -1 5 C-0.67 3.35 -0.34 1.7 0 0 Z " fill="#0E0E0D" transform="translate(472,179)"/>
<path d="M0 0 C0.33 0 0.66 0 1 0 C1 2.97 1 5.94 1 9 C0.67 9 0.34 9 0 9 C0 6.03 0 3.06 0 0 Z " fill="#0E0E0D" transform="translate(1045,163)"/>
<path d="M0 0 C0.99 0 1.98 0 3 0 C3 0.66 3 1.32 3 2 C2.34 2 1.68 2 1 2 C0.67 2.66 0.34 3.32 0 4 C0 2.68 0 1.36 0 0 Z " fill="#151614" transform="translate(758,158)"/>
<path d="M0 0 C1.98 0.5 1.98 0.5 4 1 C2.35 1.33 0.7 1.66 -1 2 C-0.67 1.34 -0.34 0.68 0 0 Z " fill="#10100F" transform="translate(780,148)"/>
<path d="M0 0 C2.48 0.5 2.48 0.5 5 1 C4.01 1.33 3.02 1.66 2 2 C1.34 1.34 0.68 0.68 0 0 Z " fill="#171715" transform="translate(312,148)"/>
<path d="M0 0 C1.98 0.5 1.98 0.5 4 1 C2.35 1.33 0.7 1.66 -1 2 C-0.67 1.34 -0.34 0.68 0 0 Z " fill="#171715" transform="translate(304,148)"/>
<path d="M0 0 C1.98 0 3.96 0 6 0 C6 0.33 6 0.66 6 1 C4.02 1 2.04 1 0 1 C0 0.67 0 0.34 0 0 Z " fill="#000100" transform="translate(755,276)"/>
<path d="M0 0 C0.66 0.66 1.32 1.32 2 2 C0.35 2 -1.3 2 -3 2 C-2.01 1.34 -1.02 0.68 0 0 Z " fill="#090A09" transform="translate(279,275)"/>
<path d="M0 0 C1.65 0 3.3 0 5 0 C3.02 0.99 3.02 0.99 1 2 C0.67 1.34 0.34 0.68 0 0 Z " fill="#000100" transform="translate(825,271)"/>
<path d="M0 0 C0.66 0 1.32 0 2 0 C2 0.66 2 1.32 2 2 C1.01 2.33 0.02 2.66 -1 3 C-0.67 2.01 -0.34 1.02 0 0 Z " fill="#181817" transform="translate(836,265)"/>
<path d="M0 0 C0.33 0.66 0.66 1.32 1 2 C0.01 3.49 0.01 3.49 -1 5 C-0.67 3.35 -0.34 1.7 0 0 Z " fill="#1B1A19" transform="translate(943,169)"/>
<path d="M0 0 C2.48 0.5 2.48 0.5 5 1 C4.01 1.5 4.01 1.5 3 2 C2.01 1.34 1.02 0.68 0 0 Z " fill="#1B1A19" transform="translate(788,148)"/>
<path d="M0 0 C0.66 0 1.32 0 2 0 C1.34 1.32 0.68 2.64 0 4 C0 2.68 0 1.36 0 0 Z " fill="#1B1A19" transform="translate(686,118)"/>
<path d="M0 0 C1.65 0 3.3 0 5 0 C5 0.33 5 0.66 5 1 C3.35 1 1.7 1 0 1 C0 0.67 0 0.34 0 0 Z " fill="#000100" transform="translate(1179,276)"/>
<path d="M0 0 C1.65 0 3.3 0 5 0 C5 0.33 5 0.66 5 1 C3.35 1 1.7 1 0 1 C0 0.67 0 0.34 0 0 Z " fill="#000100" transform="translate(1120,276)"/>
<path d="M0 0 C1.65 0 3.3 0 5 0 C5 0.33 5 0.66 5 1 C3.35 1 1.7 1 0 1 C0 0.67 0 0.34 0 0 Z " fill="#060706" transform="translate(1143,149)"/>
<path d="M0 0 C4 1 4 1 4 1 Z " fill="#000100" transform="translate(815,276)"/>
<path d="M0 0 C4 1 4 1 4 1 Z " fill="#000100" transform="translate(344,271)"/>
<path d="M0 0 C0.66 0.66 1.32 1.32 2 2 C1.01 1.67 0.02 1.34 -1 1 C-0.67 0.67 -0.34 0.34 0 0 Z " fill="#161715" transform="translate(355,265)"/>
<path d="M0 0 C0.99 0.5 0.99 0.5 2 1 C1.34 1.66 0.68 2.32 0 3 C0 2.01 0 1.02 0 0 Z " fill="#2A2B29" transform="translate(865,231)"/>
<path d="M0 0 C0 3 0 3 0 3 Z " fill="#242423" transform="translate(656,174)"/>
<path d="M0 0 C1 4 1 4 1 4 Z " fill="#FDFDFD" transform="translate(603,174)"/>
<path d="M0 0 C1 4 1 4 1 4 Z " fill="#000100" transform="translate(272,174)"/>
<path d="M0 0 C0.99 0.5 0.99 0.5 2 1 C1.34 1.66 0.68 2.32 0 3 C0 2.01 0 1.02 0 0 Z " fill="#080807" transform="translate(1198,170)"/>
<path d="M0 0 C0 3 0 3 0 3 Z " fill="#2A2B29" transform="translate(277,164)"/>
<path d="M0 0 C0 3 0 3 0 3 Z " fill="#0E0F0D" transform="translate(661,164)"/>
<path d="M0 0 C4 1 4 1 4 1 Z " fill="#393937" transform="translate(977,153)"/>
<path d="M0 0 C4 1 4 1 4 1 Z " fill="#21201E" transform="translate(326,153)"/>
<path d="M0 0 C3 1 3 1 3 1 Z " fill="#000100" transform="translate(334,276)"/>
<path d="M0 0 C0.66 0.66 1.32 1.32 2 2 C1.34 2 0.68 2 0 2 C0 1.34 0 0.68 0 0 Z " fill="#282827" transform="translate(745,270)"/>
<path d="M0 0 C3 1 3 1 3 1 Z " fill="#0B0B0A" transform="translate(1102,266)"/>
<path d="" fill="#0B0B0A" transform="translate(0,0)"/>
<path d="M0 0 C0.99 0.5 0.99 0.5 2 1 C1.01 1.5 1.01 1.5 0 2 C0 1.34 0 0.68 0 0 Z " fill="#FDFDFD" transform="translate(1168,229)"/>
<path d="M0 0 C0.33 0.66 0.66 1.32 1 2 C0.34 1.67 -0.32 1.34 -1 1 C-0.67 0.67 -0.34 0.34 0 0 Z " fill="#1E1E1C" transform="translate(630,220)"/>
<path d="" fill="#000100" transform="translate(0,0)"/>
<path d="" fill="#000100" transform="translate(0,0)"/>
<path d="" fill="#000100" transform="translate(0,0)"/>
<path d="" fill="#000100" transform="translate(0,0)"/>
<path d="" fill="#21201E" transform="translate(0,0)"/>
<path d="" fill="#000100" transform="translate(0,0)"/>
<path d="M0 0 C3 1 3 1 3 1 Z " fill="#21201E" transform="translate(803,153)"/>
<path d="M0 0 C3 1 3 1 3 1 Z " fill="#21201E" transform="translate(769,153)"/>
<path d="M0 0 C0.66 0 1.32 0 2 0 C1.67 0.66 1.34 1.32 1 2 C0.67 1.34 0.34 0.68 0 0 Z " fill="#131312" transform="translate(1039,150)"/>
<path d="" fill="#000100" transform="translate(0,0)"/>
<path d="" fill="#000100" transform="translate(0,0)"/>
<path d="" fill="#000100" transform="translate(0,0)"/>
<path d="" fill="#10100F" transform="translate(0,0)"/>
<path d="" fill="#000100" transform="translate(0,0)"/>
<path d="" fill="#393937" transform="translate(0,0)"/>
<path d="" fill="#21201E" transform="translate(0,0)"/>
<path d="" fill="#000100" transform="translate(0,0)"/>
<path d="" fill="#393937" transform="translate(0,0)"/>
<path d="M0 0 C2 1 2 1 2 1 Z " fill="#21201E" transform="translate(490,158)"/>
<path d="M0 0 C2 1 2 1 2 1 Z " fill="#393937" transform="translate(961,153)"/>
<path d="M0 0 C2 1 2 1 2 1 Z " fill="#21201E" transform="translate(290,153)"/>
<path d="" fill="#393937" transform="translate(0,0)"/>
<path d="" fill="#393937" transform="translate(0,0)"/>
<path d="" fill="#393937" transform="translate(0,0)"/>
<path d="" fill="#000100" transform="translate(0,0)"/>
<path d="M0 0 C2 1 2 1 2 1 Z " fill="#FDFDFD" transform="translate(236,138)"/>
<path d="M0 0 C2 1 2 1 2 1 Z " fill="#FDFDFD" transform="translate(1085,129)"/>
<path d="M0 0 C2 1 2 1 2 1 Z " fill="#FDFDFD" transform="translate(461,118)"/>
<path d="M0 0 C2 1 2 1 2 1 Z " fill="#FDFDFD" transform="translate(430,107)"/>
<path d="" fill="#21201E" transform="translate(0,0)"/>
<path d="" fill="#000100" transform="translate(0,0)"/>
<path d="" fill="#FDFDFD" transform="translate(0,0)"/>
<path d="" fill="#FDFDFD" transform="translate(0,0)"/>
<path d="" fill="#21201E" transform="translate(0,0)"/>
<path d="" fill="#E2E2E2" transform="translate(0,0)"/>
<path d="" fill="#000100" transform="translate(0,0)"/>
<path d="" fill="#E2E2E2" transform="translate(0,0)"/>
<path d="" fill="#E2E2E2" transform="translate(0,0)"/>
<path d="" fill="#21201E" transform="translate(0,0)"/>
<path d="" fill="#E2E2E2" transform="translate(0,0)"/>
<path d="" fill="#E2E2E2" transform="translate(0,0)"/>
<path d="" fill="#FDFDFD" transform="translate(0,0)"/>
<path d="" fill="#E2E2E2" transform="translate(0,0)"/>
<path d="" fill="#393937" transform="translate(0,0)"/>
<path d="" fill="#393937" transform="translate(0,0)"/>
<path d="" fill="#21201E" transform="translate(0,0)"/>
<path d="" fill="#E2E2E2" transform="translate(0,0)"/>
<path d="" fill="#FDFDFD" transform="translate(0,0)"/>
<path d="" fill="#393937" transform="translate(0,0)"/>
<path d="" fill="#000100" transform="translate(0,0)"/>
<path d="" fill="#393937" transform="translate(0,0)"/>
<path d="" fill="#000100" transform="translate(0,0)"/>
<path d="" fill="#000100" transform="translate(0,0)"/>
<path d="" fill="#000100" transform="translate(0,0)"/>
<path d="" fill="#21201E" transform="translate(0,0)"/>
<path d="" fill="#000100" transform="translate(0,0)"/>
<path d="" fill="#21201E" transform="translate(0,0)"/>
<path d="" fill="#393937" transform="translate(0,0)"/>
<path d="" fill="#FDFDFD" transform="translate(0,0)"/>
<path d="" fill="#FDFDFD" transform="translate(0,0)"/>
<path d="" fill="#E2E2E2" transform="translate(0,0)"/>
<path d="" fill="#000100" transform="translate(0,0)"/>
<path d="" fill="#FDFDFD" transform="translate(0,0)"/>
<path d="" fill="#000100" transform="translate(0,0)"/>
<path d="" fill="#E2E2E2" transform="translate(0,0)"/>
<path d="" fill="#FDFDFD" transform="translate(0,0)"/>
<path d="" fill="#FDFDFD" transform="translate(0,0)"/>
<path d="" fill="#FDFDFD" transform="translate(0,0)"/>
<path d="" fill="#E2E2E2" transform="translate(0,0)"/>
<path d="" fill="#FDFDFD" transform="translate(0,0)"/>
<path d="" fill="#E2E2E2" transform="translate(0,0)"/>
</svg>
